<svg t="1649829494066" class="icon" viewBox="0 0 1024 1024" version="1.1" xmlns="http://www.w3.org/2000/svg" p-id="3459" width="200" height="200"><path d="M880.7 321.5h-20.3l-53.1-198.3c-11-41.1-53.4-65.6-94.5-54.6L121.6 227C80.5 238 56 280.4 67 321.5L191.5 786v95.7c0 42.6 34.6 77.2 77.2 77.2h612.1c42.6 0 77.2-34.6 77.2-77.2V398.6c-0.1-42.5-34.7-77.1-77.3-77.1z m-689.3 77.1v140.1L128.8 305c-1.9-7 2.3-14.3 9.3-16.2l591.3-158.4c7-1.9 14.3 2.3 16.2 9.3l48.7 181.7H268.6c-42.5 0.1-77.2 34.7-77.2 77.2z m702.5 483.2c0 7.3-5.9 13.2-13.2 13.2H268.6c-7.3 0-13.2-5.9-13.2-13.2V398.6c0-7.3 5.9-13.2 13.2-13.2h612.1c7.3 0 13.2 5.9 13.2 13.2v483.2z" p-id="3460" fill="#707070"></path><path d="M766.9 511.5c-14.2-10.5-34.2-7.5-44.8 6.7L571.3 721.7c-10.5 14.2-7.5 34.2 6.7 44.8 14.2 10.5 34.2 7.5 44.8-6.7l150.9-203.6c10.4-14.2 7.4-34.2-6.8-44.7zM585.5 511.5c-14.2-10.5-34.2-7.5-44.8 6.7L389.8 721.7c-10.5 14.2-7.5 34.2 6.7 44.8 14.2 10.5 34.2 7.5 44.8-6.7l150.9-203.6c10.4-14.2 7.4-34.2-6.7-44.7z" p-id="3461" fill="#707070"></path></svg>
