<svg t="1649821694518" class="icon" viewBox="0 0 1024 1024" version="1.1" xmlns="http://www.w3.org/2000/svg" p-id="2008" width="200" height="200"><path d="M789 909.9H193.6c-14.1 0-25.5-10.6-25.5-23.7V170.7c0-13.1 11.5-23.7 25.5-23.7h639.8c14.1 0 25.5 10.6 25.5 23.7V629c0 13.3 10.7 24 24 24s24-10.7 24-24V170.7c0-39.5-33-71.7-73.5-71.7H193.6c-40.5 0-73.5 32.2-73.5 71.7v715.5c0 39.5 33 71.7 73.5 71.7H789c13.3 0 24-10.7 24-24s-10.7-24-24-24z" p-id="2009"></path><path d="M262.1 281H763c13.3 0 24-10.7 24-24s-10.7-24-24-24H262.1c-13.3 0-24 10.7-24 24s10.7 24 24 24zM262.1 451H763c13.3 0 24-10.7 24-24s-10.7-24-24-24H262.1c-13.3 0-24 10.7-24 24s10.7 24 24 24zM551.1 597c0-13.3-10.7-24-24-24h-265c-13.3 0-24 10.7-24 24s10.7 24 24 24h265c13.2 0 24-10.7 24-24zM262.1 743c-13.3 0-24 10.7-24 24s10.7 24 24 24h220.5c13.3 0 24-10.7 24-24s-10.7-24-24-24H262.1zM696.8 568.6zM696.6 864c1.5 0 3 0 4.5-0.1 81.5-2.4 145.7-70.5 143.3-152-2.4-80-68-143.3-147.5-143.3v36c29.1 0 56.7 11.2 77.7 31.5s33 47.7 33.9 76.9c0.9 29.8-9.9 58.2-30.4 79.9s-48.2 34.2-78 35c-1.1 0-2.3 0.1-3.4 0.1-29.1 0-56.7-11.2-77.7-31.5s-33-47.7-33.9-76.9c-0.9-29.8 9.9-58.2 30.4-79.9s48.2-34.2 78-35c1.1 0 2.3-0.1 3.4-0.1v-36c-1.5 0-3 0-4.5 0.1-81.5 2.4-145.7 70.5-143.3 152 2.3 80 68 143.3 147.5 143.3z" p-id="2010"></path><path d="M653.8 673.5c4.6-3 6-9.2 3-13.8-3-4.6-9.2-6-13.8-3-20.8 13.4-33.2 37-32.5 61.6 0.7 22.6 12.2 43.7 31 56.4 1.7 1.2 3.7 1.7 5.6 1.7 3.2 0 6.3-1.5 8.3-4.4 3.1-4.6 1.9-10.8-2.6-13.9-13.4-9.1-21.7-24.3-22.2-40.5-0.6-17.8 8.1-34.3 23.2-44.1zM912.3 862.8l-61.5-57.9c-6-5.7-15.5-5.4-21.2 0.6-5.7 6-5.4 15.5 0.6 21.2l61.5 57.9c2.8 2.6 2.9 7 0.3 9.8-2.6 2.8-7 2.9-9.8 0.3l-61.5-57.9c-6-5.7-15.5-5.4-21.2 0.6s-5.4 15.5 0.6 21.2l61.5 57.9c7.1 6.7 16.2 10 25.3 10 9.8 0 19.6-3.9 26.9-11.6 14-14.8 13.3-38.2-1.5-52.1z" p-id="2011"></path></svg>
