<svg t="1650008159521" class="icon" viewBox="0 0 1024 1024" version="1.1" xmlns="http://www.w3.org/2000/svg" p-id="6006" width="200" height="200"><path d="M546.931022 904.257003H145.24969c-11.010335 0-19.937229-8.925897-19.937228-19.937229V76.052553c0-11.011332 8.926894-19.937229 19.937228-19.937229h504.447778c11.010335 0 19.937229 8.925897 19.937229 19.937229v509.209785c0 11.011332-8.926894 19.937229-19.937229 19.937229-11.011332 0-19.937229-8.925897-19.937229-19.937229V95.989782H165.186919v768.39376h381.744103c11.011332 0 19.937229 8.925897 19.937229 19.937229s-8.926894 19.936232-19.937229 19.936232z" p-id="6007" fill="#707070"></path><path d="M962.676075 645.073028c-11.011332 0-19.937229-8.925897-19.937229-19.937229v-352.171211h-289.358972c-11.011332 0-19.937229-8.926894-19.937229-19.937229 0-11.011332 8.925897-19.937229 19.937229-19.937229h309.296201c11.011332 0 19.937229 8.925897 19.937228 19.937229v372.10844c0 11.011332-8.925897 19.937229-19.937228 19.937229zM793.710054 939.054446c-10.83389 0-21.738558-1.176297-32.40996-3.494-81.922073-17.799958-134.08883-98.930523-116.289868-180.852596 7.413659-34.120574 26.512527-64.872752 53.778681-86.591373 26.8704-21.404609 60.489552-33.191499 94.664953-33.191499 10.83389 0 21.737561 1.176297 32.408963 3.494 39.685054 8.621855 73.636161 32.182675 95.601006 66.341129 21.963848 34.158454 29.311714 74.826414 20.688862 114.510471-7.413659 34.120574-26.512527 64.872752-53.777684 86.592369-26.869403 21.403612-60.488556 33.191499-94.664953 33.191499z m-0.255197-264.256007c-52.309307 0-98.351347 37.166982-109.478314 88.375755-13.130659 60.436719 25.355171 120.28828 85.790892 133.420932 7.894146 1.715599 15.949783 2.584862 23.943615 2.584862 52.309307 0 98.352344-37.167979 109.478315-88.375754 6.360973-29.276824 0.94004-59.278366-15.262946-84.479024-16.203983-25.198664-41.251123-42.580937-70.527947-48.941909a112.984276 112.984276 0 0 0-23.943615-2.584862z" p-id="6008" fill="#707070"></path><path d="M822.430629 677.839864c-1.402584 0-2.826102-0.148532-4.252611-0.458557-10.760122-2.33764-17.587626-12.956208-15.249987-23.715333l12.288311-56.558928c2.338637-10.760122 12.960196-17.587626 23.715334-15.249987 10.760122 2.33764 17.587626 12.956208 15.249986 23.715334l-12.288311 56.558928c-2.027616 9.333614-10.285616 15.708543-19.462722 15.708543zM750.472185 1005.428471c-1.402584 0-2.826102-0.149529-4.252611-0.458556-10.760122-2.33764-17.587626-12.956208-15.248989-23.716331l12.289308-56.55793c2.33764-10.760122 12.961192-17.58962 23.71633-15.24899 10.760122 2.33764 17.587626 12.956208 15.24899 23.716331L769.934908 989.719929c-2.028613 9.333614-10.286613 15.708543-19.462723 15.708542zM983.517457 856.18336c-1.426509 0-2.873952-0.153517-4.324385-0.474506l-56.512075-12.497652c-10.751151-2.377515-17.53878-13.021004-15.161266-23.772155 2.377515-10.751151 13.01901-17.539777 23.772155-15.161265l56.512075 12.497652c10.751151 2.377515 17.53878 13.021004 15.161266 23.772154-2.056525 9.29972-10.299572 15.635772-19.44777 15.635772zM657.188882 784.02056c-1.426509 0-2.873952-0.153517-4.323388-0.474506l-56.513072-12.497652c-10.751151-2.377515-17.539777-13.021004-15.162263-23.772155 2.377515-10.751151 13.021004-17.53878 23.772155-15.161265l56.513072 12.497652c10.751151 2.377515 17.539777 13.021004 15.162263 23.772155-2.057522 9.300717-10.301566 15.635772-19.448767 15.635771zM907.488828 737.859894c-6.481593 0-12.837582-3.156063-16.669517-8.973746-6.055933-9.196047-3.510946-21.560119 5.685101-27.616053l48.338808-31.833773c9.197044-6.054936 21.561116-3.509949 27.616053 5.686097 6.055933 9.196047 3.510946 21.560119-5.685101 27.616053l-48.338808 31.833773a19.853493 19.853493 0 0 1-10.946536 3.287649zM628.36563 921.675163c-6.481593 0-12.837582-3.156063-16.669517-8.973746-6.055933-9.196047-3.510946-21.560119 5.685101-27.616053l48.336814-31.832776c9.197044-6.055933 21.561116-3.509949 27.616053 5.6851 6.055933 9.196047 3.510946 21.560119-5.685101 27.616053l-48.336814 31.832776a19.847511 19.847511 0 0 1-10.946536 3.288646zM899.316558 977.976901c-6.507512 0-12.885431-3.180985-16.710388-9.035552l-31.652345-48.454444c-6.02204-9.217978-3.431197-21.573079 5.787778-27.595119 9.218975-6.020046 21.574075-3.4302 27.595118 5.787778l31.652345 48.454444c6.02204 9.217978 3.431197 21.573079-5.787778 27.595118a19.845518 19.845518 0 0 1-10.88473 3.247775zM716.53005 698.179824c-6.507512 0-12.885431-3.180985-16.710388-9.035552l-31.653342-48.455441c-6.02204-9.217978-3.431197-21.573079 5.787778-27.595118 9.217978-6.021043 21.573079-3.4302 27.595118 5.787777l31.653342 48.455441c6.02204 9.217978 3.431197 21.573079-5.787778 27.595119a19.845518 19.845518 0 0 1-10.88473 3.247774zM247.872589 906.434149H40.501484c-11.011332 0-19.937229-8.925897-19.937229-19.937229s8.925897-19.937229 19.937229-19.937229h207.371105c11.011332 0 19.937229 8.925897 19.937229 19.937229s-8.925897 19.937229-19.937229 19.937229zM495.094227 268.442825H287.723122c-11.011332 0-19.937229-8.925897-19.937229-19.937229s8.925897-19.937229 19.937229-19.937229h207.371105c11.011332 0 19.937229 8.925897 19.937229 19.937229s-8.925897 19.937229-19.937229 19.937229zM495.094227 477.783728H287.723122c-11.011332 0-19.937229-8.925897-19.937229-19.937229s8.925897-19.937229 19.937229-19.937229h207.371105c11.011332 0 19.937229 8.925897 19.937229 19.937229s-8.925897 19.937229-19.937229 19.937229zM495.094227 648.247035H287.723122c-11.011332 0-19.937229-8.925897-19.937229-19.937229s8.925897-19.937229 19.937229-19.937229h207.371105c11.011332 0 19.937229 8.925897 19.937229 19.937229s-8.925897 19.937229-19.937229 19.937229z" p-id="6009" fill="#707070"></path></svg>
