<svg t="1649922284763" class="icon" viewBox="0 0 1024 1024" version="1.1" xmlns="http://www.w3.org/2000/svg" p-id="3555" width="200" height="200"><path d="M884.4 793.2h-25.6V434.8c0-56.3-46.1-102.4-102.4-102.4H602.8v-51.2c0-56.3-46.1-102.4-102.4-102.4H295.6c-56.3 0-102.4 46.1-102.4 102.4v512h-25.6c-14.3 0-25.6 11.3-25.6 25.6s11.3 25.6 25.6 25.6h716.8c14.3 0 25.6-11.3 25.6-25.6s-11.3-25.6-25.6-25.6zM551.6 332.4v460.8H244.4v-512c0-28.2 23-51.2 51.2-51.2h204.8c28.2 0 51.2 23 51.2 51.2v51.2z m256 460.8H602.8V383.6h153.6c28.2 0 51.2 23 51.2 51.2v358.4zM474.8 332.4H321.2c-14.3 0-25.6 11.3-25.6 25.6s11.3 25.6 25.6 25.6h153.6c14.3 0 25.6-11.3 25.6-25.6s-11.3-25.6-25.6-25.6z m0 153.6H321.2c-14.3 0-25.6 11.3-25.6 25.6s11.3 25.6 25.6 25.6h153.6c14.3 0 25.6-11.3 25.6-25.6S489.1 486 474.8 486z m0 153.6H321.2c-14.3 0-25.6 11.3-25.6 25.6s11.3 25.6 25.6 25.6h153.6c14.3 0 25.6-11.3 25.6-25.6s-11.3-25.6-25.6-25.6z m256-153.6h-51.2c-14.3 0-25.6 11.3-25.6 25.6s11.3 25.6 25.6 25.6h51.2c14.3 0 25.6-11.3 25.6-25.6S745.1 486 730.8 486z m0 153.6h-51.2c-14.3 0-25.6 11.3-25.6 25.6s11.3 25.6 25.6 25.6h51.2c14.3 0 25.6-11.3 25.6-25.6s-11.3-25.6-25.6-25.6z m0 0" p-id="3556" fill="#707070"></path></svg>
