<svg t="1649828708853" class="icon" viewBox="0 0 1024 1024" version="1.1" xmlns="http://www.w3.org/2000/svg" p-id="2873" width="200" height="200"><path d="M378.413046 959.906259 173.033102 959.906259c-60.094131 0-108.989357-48.995215-108.989357-109.189337L64.043746 173.683039c0-60.194122 48.895225-109.189337 108.989357-109.189337l688.032809 0c51.195 5.099502 93.29089 47.395372 98.390392 98.790353L959.456303 414.959477c0 17.698272 14.298604 31.996875 31.996875 31.996875s31.996875-14.298604 31.996875-31.996875L1023.450054 205.679914l0.499951 0 0-31.996875c0-45.795528-18.098233-89.19129-50.99502-122.288058C939.958207 18.298213 896.562445 0 850.766917 0l-31.996875 0 0 0.499951L173.033102 0.499951C77.642418 0.499951 0.049995 78.192364 0.049995 173.683039l0 677.133874c0 45.995508 17.998242 89.39127 50.695049 122.188068 32.796797 32.796797 76.192559 50.89503 122.188068 50.89503l205.479934 0c17.698272 0 31.996875-14.298604 31.996875-31.996875S396.111317 959.906259 378.413046 959.906259zM405.010448 404.860463c26.897373-26.897373 56.094522-51.394981 87.391466-73.292842 10.598965-7.399277 20.198028-9.699053 27.897276-9.699053 6.399375 0 11.498877 1.599844 14.698565 3.099697 12.298799 16.498389 24.597598 33.196758 36.396446 49.595157 0 0.799922 0.399961 1.099893 1.099893 1.499854 4.899522 6.799336 10.798945 12.498779 17.398301 16.698369 0.399961 0.399961 1.099893 0.799922 1.699834 1.099893 6.999316 4.599551 15.498486 7.199297 24.297627 8.69915 3.099697 0.299971 6.099404 0.499951 9.099111 0.499951 5.799434 0 11.498877-0.599941 16.99834-1.999805 7.399277-2.099795 14.598574-5.499463 20.997949-10.398984 1.099893-0.399961 1.499854-0.799922 2.099795-1.299873 44.095694-34.09667 87.691436-68.19334 131.88712-102.290011 16.098428-15.898447 23.897666-24.997559 24.797578-48.495264 0.399961-8.69915-0.799922-17.398301-3.399668-25.39752-0.799922-0.999902-0.799922-1.499854-1.099893-2.299775-3.399668-8.29919-9.099111-16.298408-15.898447-23.097744-8.49917-7.599258-18.898154-16.098428-31.596914-23.697686-12.498779-7.399277-27.297334-14.398594-44.495655-20.298018C692.682355 132.987013 658.985646 127.987501 625.088956 127.987501c-41.295967 0-82.991895 7.399277-123.687921 20.897959-78.592325 26.397422-153.884972 75.192657-215.778928 136.786642-61.593985 61.993946-110.48921 136.786642-136.786642 215.478957-24.397617 74.292745-28.997168 151.985158-4.899522 223.978127 5.299482 17.09833 12.298799 31.096963 19.698076 42.995801 0.399961 0.799922 0.399961 1.299873 0.599941 1.699834 7.399277 12.498779 15.698467 23.097744 23.697686 31.496924 6.399375 6.999316 14.598574 12.498779 23.097744 16.098428l0-0.19998c7.599258 3.399668 15.998438 4.799531 24.397617 4.799531 0.999902 0 1.999805 0 2.999707-0.09999 9.699053-0.399961 18.798164-2.999707 27.097354-6.999316 7.599258-3.799629 14.198613-9.099111 19.698076-16.098428 0.399961-0.599941 1.499854-1.299873 1.899814-1.699834 34.09667-43.995704 68.19334-88.091397 102.290011-131.88712l-0.399961 0c5.299482-6.999316 9.099111-13.998633 11.598867-21.597891 0.19998-0.399961 0.399961-1.099893 0.399961-1.499854 2.099795-7.999219 2.499756-16.298408 1.499854-25.197539 0-0.19998 0-0.599941 0-0.899912-1.099893-8.69915-4.39957-17.298311-8.899131-24.397617-4.599551-7.399277-10.099014-13.798652-17.398301-19.298115 0 0.19998 0 0.19998 0 0.19998-17.09833-12.498779-34.09667-24.997559-51.294991-37.496338-3.199688-6.999316-6.599356-22.697783 6.999316-42.39586C353.515477 461.254956 377.913094 431.857826 405.010448 404.860463zM266.723953 561.545162l6.999316 15.198516 13.598672 9.799043c17.598281 12.79875 35.396543 25.797481 51.09501 37.296358l0.19998 0.09999c0.19998 0.299971 0.399961 0.499951 0.499951 0.799922 0 0.09999 0 0.299971 0 0.399961-0.299971 0.399961-0.599941 0.899912-0.999902 1.399863l-13.398692 17.698272c-18.498194 23.797676-36.996387 47.695342-55.09462 70.993067-9.899033 12.79875-19.798067 25.5975-29.6971 38.29626-1.199883 1.199883-2.499756 2.699736-3.799629 4.29958-0.09999 0-0.19998 0-0.19998 0-0.09999 0-0.299971 0-0.399961 0 0 0-0.09999 0-0.09999 0l-0.599941-0.299971-0.19998-0.19998-0.499951-0.499951c-3.299678-3.399668-7.899229-8.799141-12.59877-16.098428-0.19998-0.499951-0.499951-0.999902-0.699932-1.499854l-1.299873-2.599746-1.499854-2.499756c-5.699443-9.299092-9.899033-18.298213-12.998731-28.297237l-0.19998-0.699932-0.19998-0.699932c-9.299092-27.697295-13.398692-57.594376-12.498779-88.791329 0.999902-30.597012 6.799336-62.393907 17.398301-94.690753 11.198906-33.596719 27.497315-67.093448 48.395274-99.690265 20.597988-32.096866 45.095596-62.593887 72.992872-90.691143 27.997266-27.797285 58.494288-52.294893 90.791134-72.892882 32.696807-20.797969 66.293526-37.096377 99.990235-48.395274C556.995606 197.880676 591.792208 191.981252 625.088956 191.981252c27.897276 0 54.694659 4.19959 79.792208 12.398789 11.698858 3.999609 22.497803 8.899131 32.196856 14.598574 7.799238 4.699541 14.698565 10.199004 19.998047 14.898545 0.399961 0.399961 0.699932 0.799922 0.899912 1.099893 0 0.19998 0 0.299971 0 0.499951-0.799922 0.899912-1.899814 1.999805-3.199688 3.299678-21.997852 16.99834-44.195684 34.19666-65.593594 50.89503-18.198223 14.198613-36.996387 28.797188-55.694561 43.195782l-0.499951 0.19998-7.799238 5.999414c0 0-0.09999 0-0.09999 0-0.09999 0-0.09999 0-0.19998 0l-0.09999-0.09999c-0.09999-0.09999-0.09999-0.19998-0.19998-0.299971l-9.599063-13.398692-0.09999 0c-8.49917-11.798848-17.898252-24.497608-28.497217-38.696221l-9.699053-12.998731-14.798555-6.799336c-12.69876-5.799434-26.997364-8.899131-41.495948-8.899131-22.397813 0-44.695635 7.299287-64.593692 21.19793l-0.09999 0-0.09999 0c-34.396641 24.197637-66.593497 51.195-95.790645 80.392149-29.397129 29.397129-56.494483 61.793965-80.492139 96.290597l0 0 0 0C256.324968 489.152231 251.625427 528.548384 266.723953 561.545162zM1007.351626 697.03193l-49.995118 0c-4.599551-16.498389-11.098916-32.196856-19.298115-46.79543l35.296553-35.296553c6.499365-6.499365 6.499365-16.99834 0-23.497705l-56.994434-56.994434c-3.199688-3.199688-7.499268-4.799531-11.698858-4.799531-4.29958 0-8.49917 1.599844-11.698858 4.799531l-35.296553 35.296553c-14.598574-8.199199-30.297041-14.698565-46.79543-19.298115l0-49.995118c0-9.099111-7.499268-16.598379-16.598379-16.598379l-80.59213 0c-9.099111 0-16.598379 7.499268-16.598379 16.598379l0 49.995118c-16.498389 4.599551-32.196856 11.098916-46.79543 19.298115L614.989942 534.547798c-3.199688-3.199688-7.499268-4.799531-11.698858-4.799531s-8.49917 1.599844-11.698858 4.799531l-56.994434 56.994434c-6.399375 6.499365-6.399375 16.99834 0 23.497705l35.296553 35.296553c-8.199199 14.598574-14.698565 30.297041-19.298115 46.79543l-49.995118 0c-9.099111 0-16.598379 7.499268-16.598379 16.598379l0 80.59213c0 9.099111 7.499268 16.598379 16.598379 16.598379l49.995118 0c4.599551 16.498389 11.098916 32.196856 19.298115 46.79543L534.497803 892.912801c-6.399375 6.499365-6.399375 16.99834 0 23.497705l56.994434 56.994434c3.199688 3.199688 7.499268 4.799531 11.698858 4.799531s8.49917-1.599844 11.698858-4.799531l35.296553-35.296553c14.598574 8.199199 30.297041 14.698565 46.79543 19.298115l0 49.995118c0 9.099111 7.499268 16.598379 16.598379 16.598379l80.59213 0c9.099111 0 16.598379-7.499268 16.598379-16.598379l0-49.995118c16.498389-4.599551 32.196856-11.098916 46.79543-19.298115l35.296553 35.296553c3.199688 3.199688 7.499268 4.799531 11.698858 4.799531 4.29958 0 8.49917-1.599844 11.698858-4.799531l56.994434-56.994434c6.499365-6.499365 6.499365-16.99834 0-23.497705l-35.296553-35.296553c8.199199-14.598574 14.698565-30.297041 19.298115-46.79543l49.995118 0c9.099111 0 16.598379-7.499268 16.598379-16.598379l0-80.59213C1023.950005 704.531198 1016.450737 697.03193 1007.351626 697.03193zM895.762523 793.722488c-3.199688 11.498877-7.699248 22.497803-13.398692 32.596817l-20.298018 35.896494-35.896494 20.298018c-10.099014 5.699443-20.997949 10.199004-32.596817 13.398692L753.876379 906.911434l-39.696123-11.098916c-11.498877-3.199688-22.497803-7.699248-32.596817-13.398692l-35.896494-20.298018-20.298018-35.896494c-5.699443-10.099014-10.199004-20.997949-13.398692-32.596817L600.991309 754.026365l11.098916-39.696123c3.199688-11.498877 7.699248-22.497803 13.398692-32.596817l20.298018-35.896494 35.896494-20.298018c10.099014-5.699443 20.997949-10.199004 32.596817-13.398692l39.696123-11.098916 39.696123 11.098916c11.498877 3.199688 22.497803 7.699248 32.596817 13.398692l35.896494 20.298018 20.298018 35.896494c5.699443 10.099014 10.199004 20.997949 13.398692 32.596817l11.098916 39.696123L895.762523 793.722488zM753.876379 652.736256c-55.894542 0-101.290108 45.295577-101.290108 101.290108 0 55.894542 45.295577 101.290108 101.290108 101.290108 55.894542 0 101.290108-45.295577 101.290108-101.290108C855.166488 698.031833 809.870911 652.736256 753.876379 652.736256zM753.876379 791.222732c-20.597988 0-37.296358-16.698369-37.296358-37.296358s16.698369-37.296358 37.296358-37.296358 37.296358 16.698369 37.296358 37.296358S774.474368 791.222732 753.876379 791.222732z" p-id="2874" fill="#707070"></path></svg>
