<svg t="1650033901459" class="icon" viewBox="0 0 1024 1024" version="1.1" xmlns="http://www.w3.org/2000/svg" p-id="7163" width="200" height="200"><path d="M917.5 1018.9h-811c-55.9 0-101.4-45.5-101.4-101.4v-811C5.1 50.6 50.6 5.1 106.5 5.1h811c55.9 0 101.4 45.5 101.4 101.4v811c0 55.9-45.5 101.4-101.4 101.4z m-811-946.2c-18.6 0-33.8 15.2-33.8 33.8v811c0 18.6 15.1 33.8 33.8 33.8h811c18.6 0 33.8-15.1 33.8-33.8v-811c0-18.6-15.1-33.8-33.8-33.8h-811z" p-id="7164" fill="#707070"></path><path d="M531.9 191.9c90.3 94.6 195.3 169.7 315 225.2l-26.1 46.3C701.1 405.6 598.6 330.7 513.1 239c-78.7 87.4-182.2 163.4-310.7 228.1L177 421.5C304 360.2 409.7 283.7 494.2 192h37.7zM311.1 420.8h404.1v50H539.9v126h209.2v49.9H539.9v134H815v51.4H211.9v-51.4h274.4v-134h-210v-49.9h210v-126H311.1v-50z" p-id="7165" fill="#707070"></path></svg>
