<svg t="1650033944129" class="icon" viewBox="0 0 1024 1024" version="1.1" xmlns="http://www.w3.org/2000/svg" p-id="8176" width="200" height="200"><path d="M470.7 428.1h72.8v37.1h-72.8zM470.7 530.2h72.8v43.4h-72.8zM470.7 326.6h72.8v41.3h-72.8zM614.1 428.1h89.5v37.1h-89.5zM614.1 530.2h89.5v43.4h-89.5z" p-id="8177" fill="#707070"></path><path d="M784.8 64.3H239.2c-95.8 0-174.9 79.1-174.9 174.9v545.7c0 96.5 79.1 174.9 174.9 174.9h545.7c96.5 0 174.9-79.1 174.9-174.9V239.2c-0.1-95.9-78.4-174.9-175-174.9z m15.4 762.5c-47.6-23.1-72.1-37.8-103.5-62.3-35-27.3-56-48.3-85.3-84.6 0.7 11.9 2.1 42.7 2.1 55.3v36.4c0 32.2 0.7 49 4.2 67.2h-78.4c3.5-18.2 4.2-35 4.2-67.2V633.7h-72.8v138.5c0 32.2 0.7 46.9 4.2 65.8h-77.7c2.8-16.1 4.2-34.3 4.2-66.5v-35.7c0-14.7 0.7-34.3 2.1-53.9-55.3 66.5-93 95.8-183.3 144.1-11.2-30.1-20.3-45.5-39.9-69.3 74.9-31.5 135-72.1 178.4-123.1h-37.1c-37.8 0-53.2 0.7-72.1 2.8v-65.8c15.4 2.1 41.3 2.8 71.4 2.8h79.8V530H262.9c-28 0-46.9 0.7-68.6 3.5v-72.1c18.9 2.8 34.3 3.5 68.6 3.5h137.8v-37.1h-73.5c-33.6 0-62.3 0.7-77 2.1v-65.8c15.4 2.8 38.5 3.5 76.3 3.5h74.2v-41.3H281.1c-45.5 0-50.4 0-79.8 3.5V257c21.7 2.8 46.9 4.2 80.5 4.2h94.4c-12.6-20.3-23.1-34.3-42.7-56l75.6-19.6c21 26.6 38.5 52.5 50.4 75.6H563c0.7-1.4 0.7-1.4 3.5-4.2 20.3-27.3 32.9-47.6 42.7-72.1l78.4 19.6c-18.9 28.7-29.4 42.7-41.3 56.7h102.1c35.7 0 60.2-1.4 79.8-4.2v73.5c-18.2-2.8-42-4.2-79.1-4.2h-135v41.3h113.3c18.2 0 31.5-0.7 45.5-2.1-1.4 16.1-2.1 27.3-2.1 47.6v51.8c32.9 0 48.3-0.7 65.8-3.5v72.8c-18.2-3.5-37.1-4.2-65.8-4.2v59c0 23.8 0 23.8 2.1 46.9-15.4-1.4-28-2.1-44.1-2.1h-75.6c51.1 57.4 102.8 91.6 190.3 123.8-17.4 20.9-28.6 38.4-43.3 69.2z" p-id="8178" fill="#707070"></path></svg>
