<svg t="1649828606407" class="icon" viewBox="0 0 1024 1024" version="1.1" xmlns="http://www.w3.org/2000/svg" p-id="2210" width="200" height="200"><path d="M0 112.152381v804.571429h1024V112.152381H0z m926.47619 702.171429H97.52381V209.67619h828.95238v604.64762z" p-id="2211" fill="#707070"></path><path d="M365.714286 599.771429c78.019048 0 136.533333 63.390476 136.533333 136.533333h97.52381c0-82.895238-43.885714-156.038095-112.152381-199.92381 19.504762-24.380952 34.133333-58.514286 34.133333-92.647619 0-87.771429-68.266667-156.038095-156.038095-156.038095S209.67619 355.961905 209.67619 443.733333c0 34.133333 14.628571 68.266667 34.133334 92.647619-68.266667 43.885714-112.152381 117.028571-112.152381 199.92381h97.523809c-4.87619-78.019048 58.514286-136.533333 136.533334-136.533333zM307.2 443.733333c0-34.133333 24.380952-58.514286 58.514286-58.514285s58.514286 24.380952 58.514285 58.514285-24.380952 58.514286-58.514285 58.514286-58.514286-29.257143-58.514286-58.514286zM565.638095 331.580952H877.714286v97.52381h-312.076191zM658.285714 536.380952h214.552381v97.52381h-214.552381z" p-id="2212" fill="#707070"></path></svg>
