<svg t="1649829867015" class="icon" viewBox="0 0 1024 1024" version="1.1" xmlns="http://www.w3.org/2000/svg" p-id="5373" width="200" height="200"><path d="M989.845 393.037c-1.478-13.473-12.889-23.96-26.755-23.96-13.865 0-25.276 10.487-26.752 23.96l-0.173 0 0 467.327c0 42.895-34.894 77.787-77.788 77.787l-691.11 0c-42.89 0-77.786-34.891-77.786-77.787l0-696.722c0-42.893 34.896-77.788 77.786-77.788l463.972-0.038c14.528-0.394 26.191-12.265 26.191-26.888s-11.663-26.496-26.191-26.888l0-0.039-463.972 0c-72.587 0-131.639 59.054-131.639 131.639l0 696.724c0 72.586 59.053 131.637 131.639 131.637l691.11 0c72.588 0 131.639-59.052 131.639-131.637l0-467.326-0.172 0zM296.383 675.048l-0.122 0.502c-2.204 9.35-4.103 26.841 7.958 38.894 7.478 7.491 17.05 9.599 25.465 9.599 5.136 0 9.846-0.788 13.387-1.618l147.077-38.835 468.748-468.748c16.388-16.387 25.413-38.174 25.413-61.347 0-23.175-9.025-44.963-25.413-61.349l-32.439-32.439c-33.831-33.827-88.87-33.836-122.703-0.001l-468.792 468.793-38.578 146.551zM378.206 572.741l67.73 67.722-91.081 23.352 23.351-91.074zM410.621 528.991l366.34-366.337 78.983 78.982-366.339 366.339-78.983-78.983zM888.374 97.781l32.441 32.441c12.832 12.832 12.832 33.709 0 46.543l-26.796 26.792-78.978-78.982 26.792-26.794c12.834-12.836 33.715-12.828 46.54-0.001z" p-id="5374" fill="#707070"></path></svg>
