<svg t="1650007963318" class="icon" viewBox="0 0 1024 1024" version="1.1" xmlns="http://www.w3.org/2000/svg" p-id="4442" width="200" height="200"><path d="M355.328 321.536m-151.552 0a151.552 151.552 0 1 0 303.104 0 151.552 151.552 0 1 0-303.104 0Z" p-id="4443" fill="#707070"></path><path d="M705.536 321.536m-151.552 0a151.552 151.552 0 1 0 303.104 0 151.552 151.552 0 1 0-303.104 0Z" p-id="4444" fill="#707070"></path><path d="M539.648 593.92c-53.248-18.432-116.736-27.648-184.32-27.648C161.792 566.272 3.072 635.904 3.072 824.32v37.888h704.512v-37.888c1.024-122.88-66.56-195.584-167.936-230.4z" p-id="4445" fill="#707070"></path><path d="M645.12 566.272c-24.576 0-38.912 1.024-62.464 3.072C694.272 587.776 768 683.008 768 798.72c0 21.504 2.048 43.008-3.072 62.464H1024v-37.888c0-187.392-169.984-257.024-378.88-257.024z" p-id="4446" fill="#707070"></path></svg>
